<svg width="550" height="550" viewBox="0 0 550 550" fill="none" xmlns="http://www.w3.org/2000/svg">
<circle cx="275" cy="275" r="275" fill="#001E4A"/>
<path d="M275.242 270.209C288.339 270.209 298.957 259.592 298.957 246.495C298.957 233.397 288.339 222.78 275.242 222.78C262.145 222.78 251.527 233.397 251.527 246.495C251.527 259.592 262.145 270.209 275.242 270.209Z" fill="#61DAFB"/>
<path d="M275.25 295.082C345.528 295.082 402.5 273.329 402.5 246.496C402.5 219.662 345.528 197.909 275.25 197.909C204.972 197.909 148 219.662 148 246.496C148 273.329 204.972 295.082 275.25 295.082Z" stroke="#61DAFB" stroke-width="11.5682"/>
<path d="M233.168 270.789C268.307 331.651 315.632 370.114 338.87 356.697C362.109 343.28 352.461 283.065 317.322 222.202C282.183 161.339 234.859 122.877 211.62 136.294C188.382 149.71 198.029 209.926 233.168 270.789Z" stroke="#61DAFB" stroke-width="11.5682"/>
<path d="M233.168 222.202C198.029 283.065 188.382 343.28 211.62 356.697C234.859 370.113 282.183 331.651 317.322 270.788C352.461 209.925 362.109 149.71 338.87 136.293C315.632 122.876 268.307 161.339 233.168 222.202Z" stroke="#61DAFB" stroke-width="11.5682"/>
<path d="M186.662 427V391.209H201.872C205.697 391.209 208.472 391.535 210.197 392.186C211.939 392.82 213.33 393.96 214.372 395.604C215.414 397.247 215.935 399.127 215.935 401.243C215.935 403.929 215.145 406.15 213.566 407.908C211.988 409.65 209.628 410.748 206.486 411.204C208.049 412.116 209.335 413.117 210.344 414.207C211.369 415.298 212.744 417.234 214.47 420.018L218.84 427H210.197L204.973 419.212C203.117 416.429 201.848 414.679 201.164 413.963C200.48 413.23 199.756 412.734 198.991 412.474C198.226 412.197 197.014 412.059 195.354 412.059H193.889V427H186.662ZM193.889 406.346H199.235C202.702 406.346 204.867 406.199 205.729 405.906C206.592 405.613 207.268 405.109 207.756 404.393C208.244 403.676 208.488 402.781 208.488 401.707C208.488 400.503 208.163 399.534 207.512 398.802C206.877 398.053 205.974 397.581 204.802 397.386C204.216 397.304 202.458 397.264 199.528 397.264H193.889V406.346ZM235.236 418.748L242.072 419.896C241.193 422.402 239.802 424.314 237.897 425.633C236.009 426.935 233.641 427.586 230.793 427.586C226.285 427.586 222.948 426.113 220.783 423.167C219.074 420.807 218.22 417.828 218.22 414.231C218.22 409.935 219.343 406.574 221.589 404.148C223.835 401.707 226.675 400.486 230.109 400.486C233.967 400.486 237.01 401.764 239.24 404.319C241.47 406.858 242.536 410.757 242.438 416.014H225.251C225.3 418.048 225.853 419.635 226.911 420.774C227.969 421.897 229.287 422.459 230.866 422.459C231.94 422.459 232.844 422.166 233.576 421.58C234.309 420.994 234.862 420.05 235.236 418.748ZM235.627 411.814C235.578 409.829 235.065 408.323 234.089 407.298C233.112 406.256 231.924 405.735 230.524 405.735C229.027 405.735 227.79 406.281 226.813 407.371C225.837 408.462 225.357 409.943 225.373 411.814H235.627ZM250.681 408.982L244.455 407.859C245.155 405.353 246.359 403.497 248.068 402.293C249.777 401.089 252.316 400.486 255.686 400.486C258.745 400.486 261.024 400.853 262.521 401.585C264.019 402.301 265.069 403.221 265.671 404.344C266.289 405.451 266.599 407.493 266.599 410.472L266.525 418.479C266.525 420.758 266.631 422.443 266.843 423.533C267.071 424.607 267.486 425.763 268.088 427H261.301C261.122 426.544 260.902 425.869 260.642 424.974C260.528 424.567 260.446 424.298 260.397 424.168C259.226 425.307 257.972 426.162 256.638 426.731C255.303 427.301 253.879 427.586 252.365 427.586C249.696 427.586 247.588 426.862 246.042 425.413C244.512 423.965 243.747 422.133 243.747 419.92C243.747 418.455 244.097 417.153 244.797 416.014C245.497 414.858 246.473 413.979 247.727 413.377C248.996 412.758 250.819 412.221 253.195 411.766C256.402 411.163 258.623 410.602 259.86 410.081V409.397C259.86 408.079 259.535 407.143 258.884 406.59C258.233 406.02 257.004 405.735 255.197 405.735C253.977 405.735 253.024 405.979 252.341 406.468C251.657 406.94 251.104 407.778 250.681 408.982ZM259.86 414.549C258.981 414.842 257.59 415.192 255.686 415.599C253.781 416.006 252.536 416.404 251.95 416.795C251.055 417.43 250.607 418.235 250.607 419.212C250.607 420.172 250.965 421.002 251.682 421.702C252.398 422.402 253.309 422.752 254.416 422.752C255.653 422.752 256.833 422.345 257.956 421.531C258.786 420.913 259.331 420.156 259.592 419.261C259.771 418.675 259.86 417.56 259.86 415.916V414.549ZM293.493 408.738L286.73 409.959C286.503 408.608 285.982 407.591 285.168 406.907C284.37 406.224 283.329 405.882 282.043 405.882C280.334 405.882 278.967 406.476 277.941 407.664C276.932 408.836 276.428 410.805 276.428 413.572C276.428 416.648 276.94 418.821 277.966 420.091C279.007 421.36 280.399 421.995 282.141 421.995C283.443 421.995 284.509 421.629 285.339 420.896C286.169 420.148 286.755 418.87 287.097 417.063L293.835 418.211C293.135 421.303 291.792 423.639 289.807 425.218C287.821 426.797 285.16 427.586 281.823 427.586C278.031 427.586 275.004 426.39 272.741 423.997C270.495 421.604 269.372 418.292 269.372 414.061C269.372 409.78 270.503 406.451 272.766 404.075C275.028 401.683 278.088 400.486 281.945 400.486C285.103 400.486 287.609 401.17 289.465 402.537C291.337 403.888 292.679 405.955 293.493 408.738ZM308.107 401.072V406.541H303.42V416.99C303.42 419.106 303.461 420.343 303.542 420.701C303.64 421.043 303.843 421.328 304.152 421.556C304.478 421.784 304.868 421.897 305.324 421.897C305.959 421.897 306.879 421.678 308.083 421.238L308.669 426.561C307.074 427.244 305.267 427.586 303.249 427.586C302.012 427.586 300.897 427.382 299.904 426.976C298.911 426.552 298.179 426.015 297.707 425.364C297.251 424.697 296.934 423.802 296.755 422.679C296.608 421.881 296.535 420.27 296.535 417.845V406.541H293.386V401.072H296.535V395.921L303.42 391.917V401.072H308.107ZM323.332 391.209H330.534V413.865C330.534 416.827 330.274 419.106 329.753 420.701C329.053 422.785 327.784 424.461 325.944 425.73C324.105 426.984 321.68 427.61 318.669 427.61C315.137 427.61 312.419 426.626 310.515 424.656C308.61 422.671 307.65 419.765 307.634 415.94L314.445 415.159C314.527 417.21 314.828 418.659 315.349 419.505C316.13 420.791 317.318 421.434 318.913 421.434C320.524 421.434 321.664 420.978 322.331 420.066C322.998 419.139 323.332 417.226 323.332 414.329V391.209ZM333.918 415.354L340.949 414.671C341.372 417.031 342.227 418.764 343.513 419.871C344.815 420.978 346.564 421.531 348.762 421.531C351.089 421.531 352.839 421.043 354.011 420.066C355.199 419.074 355.793 417.918 355.793 416.6C355.793 415.753 355.541 415.037 355.036 414.451C354.548 413.849 353.685 413.328 352.448 412.889C351.602 412.596 349.673 412.075 346.662 411.326C342.788 410.366 340.07 409.186 338.508 407.786C336.311 405.817 335.212 403.416 335.212 400.584C335.212 398.761 335.725 397.06 336.75 395.481C337.792 393.886 339.281 392.674 341.218 391.844C343.171 391.014 345.523 390.599 348.273 390.599C352.766 390.599 356.143 391.583 358.405 393.553C360.684 395.522 361.88 398.151 361.994 401.438L354.768 401.756C354.458 399.917 353.791 398.598 352.766 397.801C351.757 396.987 350.235 396.58 348.2 396.58C346.101 396.58 344.457 397.011 343.269 397.874C342.504 398.427 342.121 399.168 342.121 400.096C342.121 400.942 342.479 401.666 343.195 402.269C344.107 403.034 346.32 403.831 349.836 404.661C353.352 405.491 355.948 406.354 357.624 407.249C359.317 408.128 360.635 409.34 361.579 410.887C362.539 412.417 363.02 414.313 363.02 416.575C363.02 418.626 362.45 420.547 361.311 422.337C360.171 424.127 358.56 425.462 356.477 426.341C354.393 427.203 351.797 427.635 348.688 427.635C344.164 427.635 340.689 426.593 338.264 424.51C335.839 422.41 334.39 419.358 333.918 415.354Z" fill="#61DAFB"/>
</svg>
